<?xml version="1.0" standalone="no"?>
<!DOCTYPE svg PUBLIC "-//W3C//DTD SVG 20010904//EN"
 "http://www.w3.org/TR/2001/REC-SVG-20010904/DTD/svg10.dtd">
<svg version="1.0" xmlns="http://www.w3.org/2000/svg"
 width="1080.000000pt" height="1080.000000pt" viewBox="0 0 1080.000000 1080.000000"
 preserveAspectRatio="xMidYMid meet">

<g transform="translate(0.000000,1080.000000) scale(0.100000,-0.100000)"
fill="#000000" stroke="none">
<path d="M840 10794 c-14 -2 -59 -9 -100 -15 -102 -15 -219 -53 -315 -102 -61
-31 -101 -62 -171 -131 -101 -101 -152 -188 -197 -331 -55 -179 -52 138 -52
-4815 0 -4953 -3 -4636 52 -4815 45 -143 96 -230 197 -331 101 -101 188 -152
331 -197 179 -55 -138 -52 4815 -52 4953 0 4636 -3 4815 52 143 45 230 96 331
197 101 101 152 188 197 331 55 179 52 -138 52 4815 0 4953 3 4636 -52 4815
-45 143 -96 230 -197 331 -123 122 -241 182 -456 231 -70 16 -380 17 -4650 19
-2516 1 -4586 0 -4600 -2z m1785 -2754 c133 -20 248 -94 298 -191 17 -35 164
-575 418 -1539 393 -1494 452 -1729 465 -1852 4 -38 10 -68 13 -68 3 0 17 46
30 103 42 182 122 448 571 1892 243 781 452 1438 465 1460 56 97 176 176 295
195 83 13 443 13 533 0 134 -20 244 -95 296 -203 17 -34 244 -757 506 -1607
440 -1427 535 -1746 535 -1792 0 -10 3 -18 8 -18 4 0 27 98 51 218 50 247 798
3107 833 3185 48 105 178 196 308 217 90 14 1050 14 1050 -1 0 -7 -1553 -5046
-1641 -5326 l-11 -33 -559 0 -559 0 -10 23 c-10 23 -1008 3308 -1067 3512 -19
66 -37 127 -40 135 -2 8 -22 -43 -42 -115 -64 -222 -1082 -3518 -1092 -3537
-9 -17 -40 -18 -565 -18 l-554 0 -10 23 c-9 20 -1632 5270 -1646 5325 l-6 22
528 0 c301 0 559 -5 599 -10z"/>
</g>
</svg>
